<svg xmlns="http://www.w3.org/2000/svg" width="91" height="70" viewBox="0 0 91 70">
    <defs>
        <filter id="a" width="191.8%" height="255.6%" x="-45.9%" y="-72.2%" filterUnits="objectBoundingBox">
            <feOffset dy="2" in="SourceAlpha" result="shadowOffsetOuter1"/>
            <feGaussianBlur in="shadowOffsetOuter1" result="shadowBlurOuter1" stdDeviation="9"/>
            <feColorMatrix in="shadowBlurOuter1" result="shadowMatrixOuter1" values="0 0 0 0 0 0 0 0 0 0 0 0 0 0 0 0 0 0 0.200492527 0"/>
            <feMerge>
                <feMergeNode in="shadowMatrixOuter1"/>
                <feMergeNode in="SourceGraphic"/>
            </feMerge>
        </filter>
    </defs>
    <g fill="none" fill-rule="evenodd" filter="url(#a)" transform="translate(15 15)">
        <path fill="#2734DB" d="M27.15 5.027c.774-.108 1.982-.286 3.623-.534 1.641-.247 3.49-.532 5.549-.854l4.675-.757c2.136-.306 3.73-.538 4.782-.697 1.576-.238 3.032-.46 4.367-.664 1.336-.204 2.493-.383 3.474-.538C54.6.83 55.316.72 55.768.657a5.078 5.078 0 0 1 2.357.117c.771.224 1.379.513 1.823.866.444.353.643.715.596 1.087-.046.373-.472.615-1.278.728-.483.068-1.421.233-2.814.496-1.392.262-3.04.577-4.944.944s-3.969.757-6.195 1.17L38.66 7.299l-4.71.861c-2.717.504-4.615.854-5.694 1.05-1.618.294-2.685.477-3.2.55-.834.15-1.33.003-1.492-.44-.16-.442-.101-.957.178-1.545.278-.588.731-1.166 1.358-1.736.626-.57 1.31-.907 2.05-1.012z"/>
        <path fill="#272D30" d="M16.168 18.605c.773-.11 1.98-.287 3.622-.534a962.95 962.95 0 0 0 5.548-.855l4.676-.757c2.136-.306 3.73-.538 4.782-.697 1.576-.238 3.032-.46 4.367-.663 1.335-.205 2.493-.384 3.474-.538.98-.155 1.696-.264 2.148-.327a5.078 5.078 0 0 1 2.357.117c.771.224 1.379.513 1.823.866.444.353.643.715.596 1.088-.046.372-.472.614-1.278.728-.483.068-1.421.233-2.814.495-1.392.262-3.04.577-4.944.944s-3.969.757-6.195 1.17l-6.653 1.234-4.71.861c-2.717.504-4.615.854-5.694 1.05-1.618.294-2.685.477-3.2.55-.834.15-1.33.003-1.492-.44-.16-.442-.101-.957.177-1.545.28-.587.732-1.166 1.358-1.736.627-.57 1.31-.907 2.052-1.011z"/>
        <path fill="#FFF" d="M5.185 30.947c.773-.108 1.98-.286 3.622-.534 1.641-.247 3.49-.532 5.548-.854l4.676-.757c2.136-.306 3.73-.538 4.782-.697 1.576-.238 3.032-.46 4.367-.664 1.335-.204 2.493-.383 3.474-.538.98-.154 1.696-.263 2.147-.326a5.079 5.079 0 0 1 2.358.117c.771.224 1.379.513 1.823.866.444.353.642.715.596 1.087-.046.373-.472.615-1.278.728-.483.068-1.421.233-2.814.496-1.392.262-3.04.577-4.944.944s-3.969.757-6.195 1.17l-6.653 1.234-4.71.861c-2.717.504-4.615.854-5.694 1.05-1.618.294-2.685.477-3.2.55-.834.15-1.33.003-1.492-.44-.16-.442-.101-.957.177-1.545.28-.588.732-1.166 1.358-1.736.627-.57 1.31-.907 2.052-1.012z"/>
    </g>
</svg>
