<svg xmlns="http://www.w3.org/2000/svg" xmlns:xlink="http://www.w3.org/1999/xlink" width="58" height="79" viewBox="0 0 58 79">
    <defs>
        <path id="a" d="M57.754 75.45V.11H0v75.34z"/>
        <path id="c" d="M.156.21h16.626v16.539H.156V.209z"/>
    </defs>
    <g fill="none" fill-rule="evenodd">
        <g transform="translate(0 3.55)">
            <mask id="b" fill="#fff">
                <use xlink:href="#a"/>
            </mask>
            <path fill="#272D30" d="M51.583 32.663c-4.36 6.556-11.071 10.784-17.779 11.286a.813.813 0 0 0-.124.004c-.404.028-.81.046-1.214.046-3.088 0-5.894-.807-8.34-2.4-8.278-5.39-9.431-18.167-2.57-28.484C26.206 6.123 33.53 1.78 40.673 1.78c3.088 0 5.894.807 8.34 2.399 3.98 2.591 6.451 6.96 6.958 12.3.513 5.41-1.045 11.158-4.388 16.184zm-34.17 20.779l-1.623-1.057c2.174-3.427 3.798-7.1 3.235-13.34a16.087 16.087 0 0 0 4.174 3.95 16.409 16.409 0 0 0 5.318 2.228c-6.016 1.958-8.782 4.887-11.103 8.219zm-2.327 5.27l-2.34-3.52 1.295-1.948 3.267 2.127-2.222 3.342zM5.28 73.46l-3.267-2.128 10.733-16.138 2.341 3.52L5.28 73.459zm2.096-13.228L.139 71.11a.83.83 0 0 0 .24 1.157l4.678 3.044a.847.847 0 0 0 1.168-.239l5.51-8.285-4.36-6.557zm4.36 6.557l7.446-11.197a.829.829 0 0 0-.241-1.155l-.117-.076c2.741-3.93 5.98-7.054 15.006-8.742 7.257-.508 14.498-5.021 19.164-12.037 3.552-5.342 5.207-11.47 4.658-17.257-.556-5.856-3.294-10.664-7.71-13.54C47.251 1.035 44.047.11 40.672.11c-7.703 0-15.569 4.632-20.527 12.088-4.772 7.174-5.876 15.488-3.611 22.062.002.01.001.02.003.029 2.035 8.927.414 13.119-2.158 17.179l-.117-.077a.846.846 0 0 0-1.169.239l-5.72 8.6 4.361 6.558z" mask="url(#b)"/>
        </g>
        <path fill="#272D30" d="M48.577 26.43l-3.352-2.2 2.27-3.444 3.353 2.202-2.271 3.443zm-3.187 4.834l-3.352-2.2 2.27-3.444 3.352 2.2-2.27 3.444zm-3.187 4.834l-3.352-2.2 2.27-3.444 3.352 2.2-2.27 3.444zm-3.187 4.834l-3.352-2.201 2.27-3.443 3.353 2.2-2.27 3.444zm-4.745-3.116l-3.351-2.2 2.27-3.445 3.351 2.202-2.27 3.443zm-3.186 4.834l-3.352-2.201 2.27-3.444 3.352 2.201-2.27 3.444zm-4.746-3.116l-3.352-2.201 2.271-3.443 3.352 2.2-2.27 3.444zm-4.91-10.15l2.27-3.444 3.352 2.2-2.27 3.444-3.352-2.2zm5.458-8.278l3.351 2.201-2.27 3.444-3.352-2.202 2.27-3.443zm3.186-4.833l3.352 2.2-2.27 3.444-3.352-2.2 2.27-3.444zm3.187-4.834l3.352 2.2-2.27 3.444-3.352-2.201 2.27-3.443zm4.745 3.115l3.352 2.202-2.27 3.443-3.352-2.2 2.27-3.445zm3.187-4.833l3.352 2.201-2.27 3.443-3.352-2.2 2.27-3.444zm-.712 11.393l2.27-3.443 3.352 2.2-2.27 3.444-3.352-2.201zm-3.187 4.834l2.27-3.444 3.352 2.201-2.27 3.444-3.352-2.201zm-.916 1.39l3.352 2.2-2.27 3.445-3.353-2.202 2.27-3.443zm-3.829-4.506l2.27-3.444 3.352 2.201-2.27 3.444-3.352-2.201zm-.751 8.425l-2.27 3.443-3.353-2.201 2.27-3.443 3.353 2.201zm-2.435-3.591l2.27-3.444 3.351 2.201-2.27 3.443-3.351-2.2zm16.575-14.83l3.352 2.202-2.27 3.443-3.352-2.201 2.27-3.443zm7.397 6.38l-1.57 2.38-3.352-2.2 2.27-3.443 2.297 1.508c-.23-.9-.531-1.765-.904-2.586l-.476-.313.187-.283a13.878 13.878 0 0 0-.946-1.594l-.634.963-3.352-2.201 1.145-1.737a12.743 12.743 0 0 0-1.394-.915l-1.145 1.737L42.11 8.33l.634-.963a13.995 13.995 0 0 0-1.84-.236l-.187.284-.476-.312c-.904-.017-1.819.05-2.738.194l2.297 1.508-2.27 3.443-3.352-2.2 1.57-2.381c-.866.229-1.729.525-2.582.888l-.382.578-.366-.241c-.566.268-1.126.564-1.68.89l1.13.74-2.27 3.444-2.422-1.59c-.424.374-.84.764-1.244 1.175l2.75 1.806L26.41 18.8l-3.137-2.06c-.16.226-.319.453-.473.686-.153.233-.3.468-.444.704l3.137 2.06-2.27 3.443-2.75-1.805c-.217.533-.412 1.07-.589 1.605l2.422 1.591-2.27 3.443-1.13-.741c-.08.635-.13 1.266-.154 1.89l.368.242-.382.577c.004.926.073 1.835.205 2.718l1.57-2.38 3.351 2.2-2.27 3.444-2.297-1.509c.231.9.532 1.766.905 2.587l.476.312-.187.284c.282.554.596 1.087.946 1.593l.634-.962 3.352 2.201-1.145 1.737a12.54 12.54 0 0 0 1.393.915l1.145-1.737 3.352 2.2-.634.963c.604.12 1.218.197 1.84.237l.187-.284.476.312c.903.017 1.818-.05 2.738-.194l-2.297-1.509 2.27-3.443 3.351 2.201-1.569 2.381c.866-.23 1.729-.526 2.582-.888l.381-.578.367.241a21.216 21.216 0 0 0 1.679-.89l-1.13-.742 2.27-3.443 2.423 1.59c.424-.373.84-.764 1.244-1.174l-2.75-1.806 2.27-3.443 3.138 2.06c.16-.226.319-.453.472-.686.154-.233.3-.469.445-.705l-3.138-2.06 2.27-3.443 2.75 1.805c.218-.533.413-1.068.59-1.605l-2.423-1.59 2.27-3.444 1.13.742c.08-.635.131-1.266.154-1.891l-.367-.241.381-.578a19.048 19.048 0 0 0-.204-2.718z"/>
        <g transform="translate(3.57)">
            <mask id="d" fill="#fff">
                <use xlink:href="#c"/>
            </mask>
            <path fill="#272D30" d="M1.874 8.48c0-.818.158-1.597.434-2.318C3.857 6.122 5.434 5.765 7 5.091c.464-.2.958-.301 1.469-.301 1.035 0 1.996.415 2.705 1.166a3.65 3.65 0 0 1 .995 2.77c-.118 1.824-1.648 3.333-3.484 3.436a3.681 3.681 0 0 1-1.705-.302 12.59 12.59 0 0 0-4.673-1.061 6.49 6.49 0 0 1-.434-2.32M8.47 1.92c3.635 0 6.594 2.943 6.594 6.56 0 3.617-2.959 6.56-6.594 6.56-2.066 0-3.91-.95-5.12-2.432 1 .135 1.986.4 2.94.817a5.393 5.393 0 0 0 2.493.445c2.732-.154 4.926-2.318 5.102-5.033a5.34 5.34 0 0 0-1.456-4.049 5.46 5.46 0 0 0-6.11-1.265c-.996.429-1.991.7-2.973.835A6.595 6.595 0 0 1 8.47 1.92m0 14.83c4.583 0 8.312-3.71 8.312-8.27S13.053.21 8.47.21C3.885.21.156 3.92.156 8.48s3.73 8.27 8.314 8.27" mask="url(#d)"/>
        </g>
    </g>
</svg>
