<svg xmlns="http://www.w3.org/2000/svg" width="555" height="480" viewBox="0 0 555 480">
    <g fill="#394A54" fill-rule="evenodd">
        <path d="M137.036 479.83l417.24-260.72L417.555.315.316 261.034l136.72 218.797zm3.085-13.268l400.876-250.495L414.47 13.58 13.593 264.075 140.12 466.562z"/>
        <path d="M339.296 348.728l8.48-5.3-131.95-211.163-8.48 5.3z"/>
        <path d="M28.933 297.395l408.76-255.421-5.3-8.48-408.76 255.42zM123.259 448.348l408.759-255.422-5.3-8.48L117.96 439.867z"/>
        <path d="M215.909 383.378l8.48-5.299-94.326-150.952-8.48 5.299zM424.528 253.018l8.48-5.299-94.325-150.952-8.48 5.299z"/>
        <path d="M176.165 310.34l208.62-130.36-5.299-8.48-208.62 130.36zM179.045 128.127l39.858-24.906-13.778-22.049-39.858 24.906zM348.619 399.503l39.858-24.906-13.778-22.05-39.858 24.907z"/>
    </g>
</svg>
