<svg xmlns="http://www.w3.org/2000/svg" width="139" height="71" viewBox="0 0 139 71">
    <defs>
        <filter id="a" width="154.7%" height="268.4%" x="-35.9%" y="-84.2%" filterUnits="objectBoundingBox">
            <feOffset dx="-10" in="SourceAlpha" result="shadowOffsetOuter1"/>
            <feGaussianBlur in="shadowOffsetOuter1" result="shadowBlurOuter1" stdDeviation="9"/>
            <feColorMatrix in="shadowBlurOuter1" result="shadowMatrixOuter1" values="0 0 0 0 0 0 0 0 0 0 0 0 0 0 0 0 0 0 0.200492527 0"/>
            <feMerge>
                <feMergeNode in="shadowMatrixOuter1"/>
                <feMergeNode in="SourceGraphic"/>
            </feMerge>
        </filter>
    </defs>
    <g fill="none" fill-rule="evenodd" filter="url(#a)" transform="translate(18 17)">
        <path fill="#FFF" d="M32.558 9.459a184.74 184.74 0 0 0-2.802 5.156c-.402.759-.812 1.55-1.23 2.372-.417.822-.84 1.657-1.265 2.504-.426.848-.842 1.688-1.246 2.52a98.753 98.753 0 0 0-1.133 2.413c-.873 1.892-1.495 3.373-1.866 4.443-.37 1.07-.556 1.817-.557 2.242-.001.424.174.55.526.38.352-.17.817-.563 1.398-1.178.58-.614 1.248-1.417 2.006-2.408a99.535 99.535 0 0 0 2.408-3.302c.242-.349.465-.568.67-.657.206-.09.354-.074.444.046.09.121.117.317.082.589-.034.271-.149.578-.343.92a42.993 42.993 0 0 1-2.38 3.625 29.733 29.733 0 0 1-2.44 2.942c-.804.84-1.582 1.513-2.335 2.019-.753.505-1.45.803-2.092.893-1.212.17-1.943-.29-2.193-1.382-.25-1.091-.04-2.606.634-4.542l-8.291 1.02-5.736 5.75a7.066 7.066 0 0 1-1.41 1.089c-.515.302-.939.477-1.271.524l-1.034.145c-.333.047-.57-.041-.71-.264-.14-.222.004-.533.433-.933l27.021-25.792a9.14 9.14 0 0 1 1.45-1.058c.516-.302.94-.477 1.272-.524l1.783-.25c.19-.027.312.022.366.148.054.126.001.309-.159.55zm-20.194 18.76l7.15-.859a38.34 38.34 0 0 1 .799-1.693c.293-.587.623-1.21.991-1.867l1.927-3.36c.682-1.187 1.35-2.335 2.007-3.445a88.306 88.306 0 0 1 1.85-3.005c.577-.893 1.063-1.573 1.458-2.04L12.364 28.22z"/>
        <path fill="#FFF" d="M37.417 19.718c.605-.182 1.119-.23 1.543-.144.424.086.68.359.77.819.088.46-.028 1.143-.349 2.048-.32.906-.923 2.1-1.805 3.58-.457.719-.78 1.31-.969 1.772-.19.463-.308.825-.356 1.087-.048.26-.042.436.019.524.06.088.14.138.239.148.248.038.624-.172 1.13-.631a17.262 17.262 0 0 0 1.642-1.758 46.07 46.07 0 0 0 1.77-2.284c.589-.81 1.08-1.546 1.471-2.207.28-.427.524-.71.735-.848.21-.139.377-.162.5-.07.121.092.187.258.197.5.01.24-.061.517-.211.828-.133.262-.362.657-.688 1.188-.325.53-.715 1.118-1.17 1.764a60.499 60.499 0 0 1-1.496 2.028 28.092 28.092 0 0 1-1.667 1.979c-.568.613-1.14 1.16-1.714 1.64-.575.481-1.105.804-1.59.97-.693.242-1.282.276-1.767.102-.485-.174-.807-.523-.965-1.046-.159-.523-.136-1.223.068-2.1.204-.877.647-1.908 1.328-3.095.821-1.4 1.423-2.423 1.804-3.07.382-.648.434-1.013.156-1.095-.231-.089-.653.14-1.267.687-.614.547-1.296 1.255-2.046 2.124a38.986 38.986 0 0 0-2.234 2.858c-.74 1.037-1.337 2-1.794 2.888-.034.102-.073.168-.117.198l-.742 1.45a3.526 3.526 0 0 1-.911 1.018c-.372.283-.725.448-1.058.494l-1.033.146c-.333.046-.54-.046-.62-.277-.082-.23-.015-.53.2-.9l5.737-11.168c.212-.393.504-.725.878-.995.374-.271.728-.43 1.06-.477l1.034-.145c.333-.047.545.039.636.256.091.217.03.51-.185.88l-1.028 1.999a21.073 21.073 0 0 1 2.418-2.321c.816-.66 1.632-1.108 2.447-1.344z"/>
        <path fill="#FFF" d="M51.97 21.09c-.283.573-.694 1.14-1.234 1.7-.539.56-1.174 1.086-1.905 1.577A15.7 15.7 0 0 1 46.4 25.69c-.89.392-1.818.692-2.782.9-.06.614.002 1.133.182 1.556.18.423.517.66 1.01.712.495.076 1.135-.11 1.92-.56.785-.45 1.621-1.052 2.509-1.807a30.241 30.241 0 0 0 2.656-2.573 29.588 29.588 0 0 0 2.356-2.894c.259-.4.508-.653.747-.76.24-.106.425-.126.555-.06.13.067.194.216.19.447-.004.23-.094.492-.271.783a37.628 37.628 0 0 1-2.36 3.13 37.26 37.26 0 0 1-2.937 3.158 24.94 24.94 0 0 1-3.063 2.521c-1.016.7-1.952 1.11-2.808 1.231-1.236.174-2.158-.012-2.768-.556-.61-.545-.95-1.29-1.023-2.237-.073-.948.1-2.002.518-3.163a12.962 12.962 0 0 1 1.82-3.346 12.38 12.38 0 0 1 2.899-2.789 8.628 8.628 0 0 1 3.773-1.475c.547-.077 1.034-.055 1.464.067.429.121.765.316 1.009.585.244.269.372.62.384 1.055.013.434-.124.926-.41 1.475zm-4.519-1.11c-.384.2-.757.476-1.12.83a7.522 7.522 0 0 0-1.007 1.232 11.415 11.415 0 0 0-1.412 3.016c1.052-.269 1.948-.619 2.688-1.05.739-.431 1.33-.878 1.774-1.34.444-.462.75-.917.917-1.365.168-.448.213-.812.138-1.092-.076-.28-.283-.457-.62-.53-.338-.074-.79.026-1.358.3z"/>
        <path fill="#FFF" d="M53.097 11.262c.57-.08 1.46-.212 2.671-.394 1.21-.182 2.575-.392 4.092-.63l1.243-2.283c.214-.37.508-.695.88-.978.372-.282.725-.447 1.058-.494l1.033-.145c.333-.047.545.038.636.256.091.217.03.51-.185.88-.04.054-.172.285-.394.692l-.823 1.515a89.24 89.24 0 0 0 1.727-.26c.604-.098 1.239-.193 1.904-.287l1.187-2.166c.214-.37.508-.695.88-.978.372-.282.725-.447 1.058-.494l1.033-.145c.333-.047.545.038.636.256.091.217.03.51-.185.88a9.53 9.53 0 0 0-.378.671l-.808 1.495 2.477-.348c.797-.112 1.52-.22 2.173-.323a232.07 232.07 0 0 0 1.67-.271c.462-.077.788-.13.978-.156.59-.107 1.17-.08 1.738.083.569.162 1.016.372 1.343.63.327.256.473.52.439.792-.035.271-.35.449-.943.532-.262.037-.753.118-1.475.244l-2.661.465c-1.053.184-2.211.39-3.476.615-1.265.227-2.548.455-3.848.687a428.883 428.883 0 0 0-2.314 4.36 1929.32 1929.32 0 0 0-1.861 3.57 134.023 134.023 0 0 0-1.353 2.662 29.21 29.21 0 0 0-.726 1.556c-.328.773-.493 1.324-.495 1.651-.003.328.083.504.256.528.247.038.624-.173 1.129-.631a17.262 17.262 0 0 0 1.643-1.758 46.07 46.07 0 0 0 1.77-2.285c.588-.81 1.079-1.545 1.47-2.206.28-.427.53-.71.754-.851.222-.14.394-.165.516-.073.122.092.182.26.18.502-.002.243-.066.518-.193.827-.133.261-.362.657-.687 1.187-.326.53-.715 1.119-1.17 1.764a60.499 60.499 0 0 1-1.496 2.028 25.726 25.726 0 0 1-1.685 1.982 21.786 21.786 0 0 1-1.714 1.64c-.563.48-1.1.803-1.609.972-.554.199-1.024.259-1.41.18-.387-.079-.685-.255-.893-.529-.208-.274-.342-.624-.402-1.052a4.46 4.46 0 0 1 .054-1.426 25.708 25.708 0 0 1-2.228 2.386c-.76.712-1.475 1.188-2.144 1.428-.693.243-1.244.284-1.655.123-.41-.16-.7-.459-.87-.895-.171-.437-.228-.968-.17-1.594.057-.626.219-1.285.485-1.977.127-.308.401-.898.824-1.77.423-.871.93-1.875 1.521-3.013.592-1.137 1.22-2.352 1.887-3.646.667-1.293 1.305-2.528 1.915-3.704-1.606.298-3.005.555-4.199.772-1.194.216-1.98.35-2.36.404-.615.11-.982.005-1.1-.318-.118-.323-.074-.699.133-1.128.206-.428.54-.851 1.003-1.267.463-.417.967-.664 1.514-.74zm8.06 8.973a410.913 410.913 0 0 1 2.02-3.992c.722-1.41 1.42-2.744 2.09-4.002l-3.687.664c-.593 1.125-1.215 2.304-1.866 3.534a342.27 342.27 0 0 0-1.833 3.511 206.482 206.482 0 0 0-1.494 2.955c-.424.86-.72 1.47-.887 1.833-.328.773-.493 1.324-.495 1.651-.003.328.083.504.256.528.247.038.613-.16 1.098-.59.485-.432 1.012-.991 1.582-1.677a43.472 43.472 0 0 0 1.724-2.224 38.507 38.507 0 0 0 1.491-2.19z"/>
        <path fill="#2734DB" d="M91.289 3.683c.57-.08 1.46-.212 2.67-.394 1.211-.182 2.575-.392 4.093-.63l3.448-.557a508.833 508.833 0 0 0 6.748-1.003c.985-.15 1.839-.282 2.562-.396.723-.114 1.251-.194 1.584-.24.59-.108 1.17-.08 1.738.082.568.163 1.016.372 1.343.63.327.256.473.52.439.792-.035.271-.35.449-.944.532-.356.05-1.048.172-2.075.365-1.027.193-2.243.424-3.647.694-1.404.27-2.927.557-4.569.86l-4.907.908-3.474.634c-2.004.37-3.403.628-4.2.772-1.193.216-1.98.35-2.36.404-.614.11-.98.005-1.099-.318-.118-.323-.074-.698.133-1.127.206-.43.54-.852 1.003-1.268.462-.417.967-.663 1.514-.74z"/>
        <path fill="#272D30" d="M83.189 13.583c.57-.08 1.46-.212 2.67-.394 1.211-.182 2.575-.392 4.093-.63l3.448-.557A508.838 508.838 0 0 0 100.148 11c.985-.15 1.839-.282 2.562-.396.723-.114 1.251-.194 1.584-.24.59-.108 1.17-.08 1.738.082.568.163 1.016.372 1.343.63.327.256.473.52.439.792-.035.271-.35.449-.944.532-.356.05-1.048.172-2.075.365-1.027.193-2.243.424-3.647.694-1.404.27-2.927.557-4.569.86l-4.907.908-3.474.634c-2.004.37-3.403.628-4.2.772-1.193.216-1.98.35-2.36.404-.614.11-.98.005-1.099-.318-.118-.323-.074-.698.133-1.127.206-.43.54-.852 1.003-1.268.462-.417.967-.663 1.514-.74z"/>
        <path fill="#FFF" d="M75.089 22.583c.57-.08 1.46-.212 2.67-.394 1.211-.182 2.575-.392 4.093-.63l3.448-.557A508.838 508.838 0 0 0 92.048 20c.985-.15 1.839-.282 2.562-.396.723-.114 1.251-.194 1.584-.24.59-.108 1.17-.08 1.738.082.568.163 1.016.372 1.343.63.327.256.473.52.439.792-.035.271-.35.449-.944.532-.356.05-1.048.172-2.075.365-1.027.193-2.243.424-3.647.694-1.404.27-2.927.557-4.569.86l-4.907.908-3.474.634c-2.004.37-3.403.628-4.2.772-1.193.216-1.98.35-2.36.404-.614.11-.98.005-1.099-.318-.118-.323-.074-.698.133-1.127.206-.43.54-.852 1.003-1.268.462-.417.967-.663 1.514-.74z"/>
    </g>
</svg>
