<svg xmlns="http://www.w3.org/2000/svg" xmlns:xlink="http://www.w3.org/1999/xlink" width="80" height="80" viewBox="0 0 80 80">
    <defs>
        <path id="a" d="M79.552 80H0V.431h79.552z"/>
    </defs>
    <g fill="none" fill-rule="evenodd">
        <path fill="#272D30" d="M67.788 29.816l-3.415-3.414 3.513-3.513 3.414 3.415-3.512 3.512zm-4.828 4.828l-3.414-3.414 3.512-3.512 3.414 3.414-3.512 3.512zm-4.828 4.828l-3.414-3.414 3.512-3.512 3.414 3.414-3.512 3.512zM53.304 44.3l-3.414-3.414 3.512-3.512 3.414 3.414-3.512 3.512zm-4.73-4.73l-3.414-3.414 3.512-3.512 3.414 3.414-3.512 3.513zM43.746 44.4l-3.414-3.415 3.512-3.512 3.414 3.414-3.512 3.513zm-8.144-8.145l3.513-3.512 3.413 3.414-3.512 3.512-3.414-3.414zm.098-9.558l3.512-3.512 3.415 3.414-3.512 3.513-3.415-3.415zm8.34-8.34l3.414 3.414-3.512 3.513-3.414-3.415 3.512-3.512zm4.828-4.828l3.414 3.414-3.512 3.513-3.414-3.415 3.512-3.512zM53.697 8.7l3.414 3.414-3.513 3.512-3.414-3.414L53.697 8.7zm8.143 8.144l-3.512 3.512-3.414-3.414 3.512-3.513 3.414 3.415zM63.254 8.6l3.414 3.415-3.512 3.512-3.414-3.414 3.512-3.513zm-3.61 13.071l3.512-3.512 3.414 3.414-3.512 3.512-3.414-3.414zM54.816 26.5l3.512-3.512 3.414 3.414-3.512 3.512-3.414-3.414zM53.5 27.816l3.414 3.414-3.512 3.513-3.414-3.415 3.512-3.512zm-3.414-6.046l3.512-3.512 3.415 3.414-3.513 3.512-3.414-3.414zm-2.73 9.558l-3.512 3.512-3.414-3.414 3.512-3.512 3.414 3.414zm-2.098-4.73l3.512-3.512 3.415 3.414-3.513 3.512-3.414-3.414zm26.14-9.852l-3.512 3.512-3.414-3.414 3.512-3.512 3.415 3.414zm-2.197 4.828l3.513-3.513L75 20.347a18.551 18.551 0 0 0-.404-3.035l-.566-.567.34-.34c-.185-.67-.409-1.323-.674-1.957l-.982.982-3.414-3.414 1.773-1.773a14.926 14.926 0 0 0-1.316-1.316L67.984 10.7 64.57 7.286l.981-.982a16.425 16.425 0 0 0-1.956-.674l-.34.34-.568-.567c-.984-.216-1.999-.35-3.034-.403l2.286 2.286-3.513 3.512-3.414-3.414 2.374-2.375c-.998.06-2.007.191-3.022.392l-.667.667-.426-.425c-.678.168-1.357.367-2.035.597l1.145 1.144-3.513 3.512-2.46-2.46c-.548.315-1.09.648-1.626 1.005l2.77 2.77-3.512 3.513-3.165-3.165c-.225.212-.45.425-.67.645-.221.221-.433.446-.645.671l3.165 3.165-3.513 3.512-2.77-2.77c-.358.535-.69 1.078-1.006 1.626l2.46 2.46-3.512 3.512-1.144-1.144c-.23.678-.429 1.356-.596 2.035l.424.425-.667.668a22.412 22.412 0 0 0-.39 3.023l2.373-2.375 3.415 3.415-3.512 3.512L32 32.653c.053 1.035.187 2.05.404 3.034l.567.567-.341.341c.186.67.409 1.323.675 1.957l.982-.982 3.413 3.414-1.773 1.773a14.94 14.94 0 0 0 1.316 1.316l1.773-1.773 3.414 3.414-.981.982c.633.266 1.287.49 1.956.674l.34-.34.568.567c.985.216 1.999.35 3.035.403l-2.286-2.286 3.512-3.512 3.415 3.414-2.375 2.375c.998-.06 2.008-.191 3.023-.392l.667-.667.425.425a25.227 25.227 0 0 0 2.035-.597l-1.144-1.144 3.512-3.512 2.46 2.46c.548-.315 1.09-.648 1.626-1.005l-2.77-2.77 3.512-3.513 3.165 3.165c.225-.212.45-.424.67-.645.221-.22.434-.446.645-.671l-3.164-3.165 3.512-3.512 2.77 2.77c.358-.535.69-1.078 1.006-1.626l-2.46-2.46 3.512-3.512 1.144 1.144c.23-.678.429-1.356.596-2.035l-.424-.425.667-.668c.2-1.014.332-2.024.39-3.023l-2.373 2.375-3.415-3.414z"/>
        <g>
            <mask id="b" fill="#fff">
                <use xlink:href="#a"/>
            </mask>
            <path fill="#272D30" d="M68.612 41.288c-5.77 5.771-13.21 9.081-20.407 9.081-.952 0-1.88-.06-2.784-.174a.926.926 0 0 0-.217-.031h-.03c-4.056-.56-7.588-2.26-10.333-5.005-8.243-8.244-6.507-23.393 3.871-33.771 5.772-5.771 13.21-9.081 20.407-9.081 5.335 0 9.956 1.801 13.365 5.21 8.243 8.243 6.506 23.393-3.872 33.77zM24.325 57.36l-1.684-1.685c3.355-3.496 6.128-7.407 6.954-14.917a18.916 18.916 0 0 0 3.92 5.727 19.024 19.024 0 0 0 5.739 3.92c-7.515.823-11.431 3.598-14.93 6.955zM5.583 77.736l-3.319-3.32 18.233-18.231 3.318 3.318L5.583 77.736zM73.81 6.19C70.095 2.477 64.88.43 59.12.43c-7.692 0-15.614 3.51-21.734 9.63-7.193 7.193-10.45 16.577-9.422 24.737l-.002.033c.2 10.906-2.693 15.394-6.648 19.518l-.154-.154a.939.939 0 0 0-1.326 0L.274 73.755a.938.938 0 0 0 0 1.325l4.646 4.645a.937.937 0 0 0 1.327 0l19.558-19.558a.939.939 0 0 0 0-1.327l-.154-.153c4.113-3.946 8.584-6.829 19.435-6.649 1.017.136 2.059.207 3.12.207 7.69 0 15.612-3.51 21.732-9.63 11.11-11.11 12.846-27.45 3.872-36.424z" mask="url(#b)"/>
        </g>
    </g>
</svg>
