<svg xmlns="http://www.w3.org/2000/svg" width="125" height="82" viewBox="0 0 125 82">
    <g fill="none" fill-rule="evenodd" stroke="#272D30" stroke-width="1.2">
        <path d="M28.176 43.5c-1.31.13-1.76.23-2.55 1.413-.315.484-.765.695-1.277.94-.411.197-.842.404-1.229.76-.134.123-.268.25-.402.377-.56.521-1.09 1.01-1.693 1.414-.158.108-.316.206-.474.305-.837.54-1.635 1.048-2.152 2.053-.105.103-.56.08-1.354-.07-.186-.033-.34-.062-.473-.08-.148-.015-.306-.029-.474-.047-1.664-.193-3.936-.447-5.237.765a23.74 23.74 0 0 1-.47.404c-.62.522-1.324 1.109-1.554 1.955l-.841 3.09c-.445 1.63-1.498 3.515-2.851 4.05a.365.365 0 0 0-.086.042c-.25.165-.522.226-.766.17-.301-.066-.502-.296-.54-.63-.005-.023-.015-.052-.02-.08-.167-.526.283-1.141.761-1.724.1-.117.335-.366.608-.653 2.176-2.302 3.305-3.716 3.037-4.59-.143-.455-.66-.634-1.11-.789a4.114 4.114 0 0 1-.363-.136.18.18 0 0 0-.072-.042c-.225-.108-.464-.447-.66-.72-.081-.112-.153-.215-.23-.31-.56-.7-1.262-1.169-1.942-1.625l-.373-.249c-.038-.032-.095-.065-.148-.103-.344-.23-1.196-.798-1.277-1.25.191-.117.45-.31.851-.624.153-.122.923-.738 1.12-.991 1.258-1.574.177-3.467-.617-4.844-.187-.333-.369-.643-.503-.925-.043-.09-.076-.193-.048-.23.096-.123.531-.235 1.029-.146l.024.005c.445.075.765.117 1.086.394.047.042.12.118.196.197.282.296.631.663 1.033.752.048.014.1.019.148.019.603.028 1.057-.395 1.454-.77.402-.376.68-.616.952-.56.038.01.081.029.13.052.028.01.057.024.085.033.034.014.106.056.158.09.177.107.402.239.627.29.31.071.588-.028.76-.248.216-.188.354-.522.531-.978.038-.098.082-.206.1-.244l.02-.033c.502-.991.555-1.094 1.497-1.32.99-.24 1.899-.474 2.87-.991.244-.127.497-.16.79-.094.473.108.96.446 1.42.785.191.145.406.244.65.295.751.17 1.56-.15 2.21-.413.12-.047.23-.094.34-.131.09-.038.382-.1 1.085.06a8.81 8.81 0 0 1 1.388.452c.028.009.047.018.076.023.383.099.832.493 1.23.836.167.15.325.287.482.404l3.239 2.48c.129.1.272.193.425.297.354.23.837.55.952.826.034.08.077.16.12.245.024.051.062.117.096.183l-1.794.183zm2.458-.973c-.224-.536-.818-.926-1.296-1.245-.139-.094-.272-.183-.373-.254l-3.238-2.485c-.134-.094-.278-.225-.435-.362-.47-.408-1-.869-1.588-1.033a9.274 9.274 0 0 0-1.531-.493c-.713-.16-1.249-.17-1.636-.024-.115.042-.24.09-.359.141-.555.22-1.181.474-1.64.371a.708.708 0 0 1-.283-.131c-.516-.386-1.124-.804-1.788-.954a2.042 2.042 0 0 0-1.455.183c-.87.46-1.678.677-2.645.907-1.31.31-1.55.686-2.123 1.813l-.02.028c-.043.085-.08.193-.133.33-.063.154-.197.507-.278.61a2.532 2.532 0 0 1-.253-.141 2.239 2.239 0 0 0-.35-.179 1.631 1.631 0 0 0-.31-.108c-.794-.178-1.364.362-1.823.799-.258.235-.545.507-.736.512-.13-.047-.421-.348-.541-.48-.096-.098-.182-.187-.263-.257a2.372 2.372 0 0 0-1.105-.531 6.753 6.753 0 0 0-.445-.085l-.024-.005c-.688-.117-1.559-.014-1.951.503-.153.188-.35.597-.062 1.198.153.315.34.639.54.987.765 1.338 1.56 2.72.694 3.805-.158.197-1.388 1.198-1.751 1.414a.476.476 0 0 0-.364.31c-.392 1.141.976 2.057 1.632 2.494.052.038.1.066.143.099.124.084.254.174.383.258.645.432 1.258.841 1.722 1.424.067.08.134.174.205.277.249.347.565.784.995 1.005.153.094.35.16.56.235.148.052.406.141.512.207-.015.117-.125.521-.919 1.517-.602.756-1.353 1.546-1.899 2.128-.31.324-.535.56-.655.705-.464.568-1.234 1.513-.942 2.546.105.71.588 1.236 1.272 1.39a1.96 1.96 0 0 0 1.473-.277c1.741-.718 2.899-2.95 3.363-4.655l.851-3.096c.149-.559.708-1.029 1.244-1.48.172-.14.35-.29.507-.437.976-.91 2.999-.685 4.472-.516.168.018.335.037.483.051.096.01.235.038.393.066.784.15 1.97.376 2.382-.423.411-.78 1.033-1.183 1.832-1.69.157-.104.32-.208.487-.316.665-.446 1.249-.986 1.808-1.512.134-.122.268-.25.402-.371.287-.259.632-.428.99-.602.565-.267 1.201-.573 1.665-1.273.574-.86.694-.874 1.846-.991l2.014-.207c.383-.037.56-.249.627-.37.21-.39-.024-.832-.192-1.156a2.086 2.086 0 0 1-.09-.174z"/>
        <path d="M26.512 36.582c.473-.449.958-.666 1.157-.617 0 .004.005.004.009.01l2.2.91c.11.13.14.719.154.95.004.14.013.26.03.367a5.05 5.05 0 0 1-.052 1.783c-.283.053-.848.073-1.078.03l-3.047-2.537c.022-.14.203-.496.627-.896M25.32 38.22l3.126 2.603a.68.68 0 0 0 .261.126c.265.062.733.058 1.047.033.49-.038.98-.11 1.073-.554.19-.92.22-1.495.106-2.362-.009-.063-.013-.174-.022-.29-.031-.612-.084-1.528-.707-1.788l-2.208-.916a.709.709 0 0 0-.133-.044c-.936-.236-2.345 1.003-2.733 1.91-.332.766.061 1.176.19 1.282M9.362 24.606l4.037-.338c.076-.005.2-.005.334-.005.647 0 1.628-.005 1.956-.7.39-.824.758-1.603 1.343-2.324.048-.054.095-.113.148-.176.519-.652 1-1.181 1.504-1.064.072.02.153.05.229.098a.625.625 0 0 0 .086.035c.457.151.49.367.542 1.019.015.29.039.613.143.946.005.03.015.059.029.083.457.912 1.395 1.142 2.223 1.343.8.196 1.496.363 1.81 1.034.933 1.99 1.404 4.195 1.295 4.641-1.371.172-1.786.544-2.733 1.573-.114.118-.22.191-.276.177-.038-.01-.257-.094-.62-.858a.612.612 0 0 0-.418-.363c-.562-.132-.976.495-1.69 1.95-.053.109-.096.192-.115.231-.08.142-.162.314-.247.5-.177.387-.538 1.186-.82 1.26l-.457.127c-.6.171-.995.284-1.414.186-.204-.044-.419-.147-.662-.309-.195-.132-.209-.294-.133-.852.043-.348.1-.74-.01-1.142l-.9-3.445c-.218-.838-.894-1.26-1.485-1.637a5.235 5.235 0 0 1-.4-.26c-.271-.191-.6-.328-1-.422-.462-.112-.947-.142-1.414-.166-.233-.015-.457-.03-.662-.05-.014-.004-.028-.004-.043-.009-.352-.083-.809-.578-1.166-.985.238-.03.552-.064.986-.098m-2.195.206c.114.108.257.27.404.44.486.55 1.081 1.231 1.757 1.393.053.01.1.02.153.024.228.025.461.044.714.059.428.025.871.049 1.257.137.28.069.495.162.671.284.143.099.295.192.438.285.486.308.948.593 1.067 1.053l.9 3.446c.057.205.024.475-.015.754-.076.554-.176 1.314.557 1.804.339.23.653.372.967.446.657.157 1.224-.005 1.88-.196.139-.04.287-.084.444-.123.714-.19 1.123-1.078 1.442-1.793.081-.167.153-.324.21-.427.028-.054.076-.152.138-.28.29-.587.49-.95.628-1.165.253.436.586.842 1.043.95.286.069.714.044 1.176-.456.857-.93 1.057-1.146 2.22-1.284a.826.826 0 0 0 .637-.445c.676-1.265-1.233-5.548-1.252-5.592-.514-1.083-1.538-1.338-2.447-1.559-.7-.166-1.31-.318-1.577-.799a3.89 3.89 0 0 1-.095-.69c-.043-.633-.104-1.495-1.147-1.863a1.834 1.834 0 0 0-.443-.171c-1.119-.265-1.919.735-2.447 1.396-.048.06-.096.113-.139.167-.666.813-1.08 1.686-1.47 2.524-.125.147-.867.152-1.11.152-.157 0-.29 0-.405.01l-3.995.333-.038.005c-1.928.152-2.143.289-2.262.627a.526.526 0 0 0 .139.554M115.715 69.1a7.57 7.57 0 0 0-.575.185c-1.43.556-1.847.87-2.297 2.445-.364 1.178-.948 1.894-1.747 2.887l-.043.057c-.642.788-.78 1.989-.895 2.962l-.043.328a8.304 8.304 0 0 0-.043.778c-.015.46-.034 1.087-.23 1.253-.081.072-.244.062-.369.048l-.287-.043a20.032 20.032 0 0 1-1.555-.256 6.608 6.608 0 0 1-1.407-.484c-1.211-.584-2.145-1.064-3.111-1.923-.211-.18-.45-.304-.723-.366-.857-.194-1.819.271-2.59.65-.234.11-.45.214-.617.28l-2.9 1.107c-.235.09-.484.204-.742.328-.484.227-1.034.484-1.45.527a.528.528 0 0 0-.125.028c-.048.019-.186.052-.493-.019-1.335-.304-3.613-2.003-4.073-2.649a113.014 113.014 0 0 0-3.666-4.78 14.97 14.97 0 0 0-.488-.556c-.436-.484-.929-1.026-1.072-1.533-.21-.755-.493-1.776-1.59-2.118l-3.158-.973c-.273-.086-.474-.38-.709-.722-.31-.46-.665-.978-1.34-1.13-1.723-.394-3.01-1.443-4.379-2.558-.153-.124-.306-.247-.46-.375-.19-.152-.392-.338-.612-.537-.555-.513-1.192-1.092-1.89-1.358a3.1 3.1 0 0 0-.565-.204c-.307-.071-.565-.033-.766.114-.326.228-.36.617-.397.96-.02.232-.044.47-.134.654-.01.015-.02.02-.03.029-.19-.071-.56-.584-.736-.831a4.433 4.433 0 0 0-.45-.555c-.412-.433-.761-.793-1.24-.903-.483-.109-.947.086-1.297.266-.32.167-.636.342-.957.513-.618.337-1.259.684-1.9.983-.005.005-.01.01-.015.01-.497.26-1.038.355-1.598.455-.503.085-1.015.176-1.522.385-1.288.375-2.551.978-3.781 1.552-.589.28-1.202.57-1.795.821-.34.143-.742.442-1.173.76-.363.27-1.02.755-1.292.812-.02-.081-.043-.266 0-.627.148-1.282.775-2.663 1.393-3.997.273-.608.54-1.182.756-1.747.69-1.78.833-3.366 1-5.204l.005-.037c.01-.148.015-.347.015-.575-.005-.37-.005-1.495.21-1.666a.41.41 0 0 0 .12-.138c.057-.095.143-.157.282-.256.225-.157.536-.375.69-.85.186-.565.071-1.068-.025-1.515a3.422 3.422 0 0 1-.047-.213c-.23-1.106-1.542-2.037-2.68-2.293-1.097-.247-2.01.095-2.442.92-.081.153-.162.319-.249.49-.354.721-.79 1.614-1.344 2.003-.316.223-1.637.698-2.054.617a.442.442 0 0 0-.134-.066c-.296-.086-.627-.399-.943-.703-.344-.322-.694-.655-1.11-.845l-2.924-1.357c-.14-.062-.273-.12-.407-.176-.603-.256-.929-.413-1.115-.86-.086-.213-.192-.431-.287-.64-.283-.603-.57-1.225-.613-1.814-.014-.166-.014-.36-.014-.57 0-.745.004-1.67-.522-2.269l-1.991-2.293c-1.053-1.215-1.264-3.969-.608-4.842.096-.119.593-.437.957-.674 1.297-.836 2.03-1.339 1.92-1.96-.03-.177-.159-.48-.68-.6-.216-.047-.512-.066-.89-.06-.14.004-.283.018-.44.028-.34.023-.7.047-.958-.01-.201-.047-.297-.114-.311-.39-.043-.801-.292-1.561-.531-2.292-.063-.2-.13-.399-.192-.598l-.024-.076c-.344-1.154-.387-1.273.287-2.113.824-1.035 1.01-2.089.503-2.881-.47-.741-.45-1.363.062-2.232.594-1.001.484-1.818.36-2.763-.02-.152-.044-.308-.063-.475-.091-.859-.091-.859.751-1.324l.216-.119c.78-.432 1.517-.84 2.316-1.172 1.89-.774 3.523-.879 5.59-1.016l.364-.024c.13-.01.278-.005.421-.005.47.005 1.006.014 1.326-.365.196-.228.259-.537.192-.921-.01-.076-.039-.185-.077-.337-.177-.731-.263-1.235-.263-1.496.086 0 .172.005.268.01.68.023 1.531.052 2.154-.485l2.618-2.269.239-.209c.479-.427.622-.56 1.168-.446.258.052.545.133.852.218.277.076.565.157.856.224.455.104.824.151 1.154.142.732.119 1.651-.356 2.383-.74.23-.12.44-.228.594-.295l2.814-1.163c.9-.37 2.355-.209 3.638-.067.54.062 1.053.12 1.493.133l3.973.124c.114.005.268.019.42.038.48.047 1.015.104 1.465-.067 1.106-.432 1.824-1.642 1.637-2.758l-.024-.133c-.148-.816-.134-1.158-.096-1.3 1.106.246 2.02.322 3.126.256.182-.01.364-.029.536-.043.526-.047 1.072-.095 1.541.01L90.96 5.124c.67.166 1.388.138 2.073.11.24-.01.469-.015.69-.02.674 0 1.004.223 1.622.665l.081.052c.258.185.522.375.78.565 1.364 1.007 2.776 2.042 4.57 2.45.034.005.063.01.092.019.076.024.158.047.24.062.621.142 1.34.104 1.971.066.268-.014.531-.028.761-.028l3.518.019c1.144.004 2.326.156 3.46.299.402.052.814.104 1.22.147l6.309.712c.79.09 1.493-.76 2.053-1.443.13-.152.25-.3.335-.385.125-.128.22-.242.302-.337.024.024.048.048.062.076.077.08.168.18.268.294.536.594 1.345 1.486 1.599 2.28.172.55.114.574-.35.787-.282.124-.627.28-.938.598-.34.352-.493.68-.612.945-.187.385-.245.518-.833.603-1.316.19-1.728 1.173-1.943 2.003-.039.162-.101.423-.182.75-.297 1.301-.862 3.713-1.551 5.764-1.12 3.314-1.77 3.27-1.785 3.266-.21-.062-.44-.152-.68-.242-.416-.157-.852-.318-1.297-.418a3.194 3.194 0 0 0-1.053-.085l-3.23.351c-1.556.166-3.925 1.078-5.045 2.255l-.12.123c-1.378 1.439-2.8 2.934-2.11 5.408.172.607.607 1.187.995 1.695.153.204.297.394.416.57l1.948 2.971c.675 1.03.934 2.36 1.182 3.641.082.418.163.85.269 1.263l.646 2.763c.162.674.756 1.24 1.278 1.733.167.157.325.304.44.432 1.642 1.814 2.522 4.406 3.374 6.912.378 1.111.732 2.16 1.154 3.153l1.531 3.612c.163.375.364.617.531.812.173.204.292.342.345.603.038.19.072.394.105.608.13.811.273 1.728.934 2.378.143.138.296.275.46.418.526.465 1.12.987 1.133 1.51 0 0 .005.01 0 .014.02.323-.741.721-2.263 1.177m3.22-1.22c-.023-.935-.818-1.633-1.46-2.188-.147-.138-.296-.266-.41-.38-.446-.437-.551-1.125-.666-1.852a15.86 15.86 0 0 0-.115-.66c-.105-.498-.344-.778-.55-1.02-.149-.176-.278-.323-.378-.57l-1.537-3.613c-.402-.959-.756-1.989-1.125-3.086-.885-2.596-1.794-5.283-3.57-7.244-.144-.152-.311-.313-.488-.484-.407-.385-.914-.86-1.01-1.258l-.651-2.763c-.096-.4-.172-.803-.258-1.23-.264-1.372-.541-2.791-1.321-3.978l-1.948-2.972a7.713 7.713 0 0 0-.45-.622c-.335-.442-.718-.945-.833-1.377-.55-1.96.522-3.08 1.876-4.5l.12-.129c.943-.987 3.063-1.813 4.456-1.96l3.23-.352c.206-.019.445-.004.737.062.379.086.78.238 1.168.385.254.095.498.19.737.26.024.01.053.02.082.025 1.503.341 2.757-2.393 4.47-9.747.077-.323.139-.58.177-.731.22-.855.531-1.21 1.154-1.3 1.096-.157 1.344-.68 1.56-1.14.11-.228.21-.451.44-.689.177-.185.402-.284.641-.389.513-.232 1.293-.584.862-1.937-.306-.987-1.168-1.937-1.795-2.63-.1-.109-.182-.204-.253-.285-.297-.332-.44-.498-.685-.555-.378-.086-.603.2-.751.384-.086.105-.187.238-.345.4-.11.113-.24.265-.383.44-.234.28-.938 1.135-1.21 1.107l-6.309-.712-1.196-.147c-1.168-.152-2.384-.304-3.59-.309l-3.513-.019c-.259 0-.536.014-.823.033-.594.033-1.211.067-1.7-.047a1.586 1.586 0 0 1-.177-.048l-.057-.014c-1.642-.346-2.939-1.296-4.312-2.302-.264-.195-.532-.39-.795-.575l-.072-.052c-.502-.36-.9-.641-1.469-.77a3.408 3.408 0 0 0-.723-.075c-.234 0-.483.01-.722.024-.603.023-1.226.047-1.757-.072L79.263 1.274l-.057-.014c-.613-.138-1.235-.08-1.838-.029-.173.015-.34.034-.503.043-1.043.062-1.862-.01-2.915-.247-.42-.095-.684.08-.804.195-.469.441-.354 1.334-.2 2.207l.023.124c.11.664-.368 1.452-1.048 1.718-.225.086-.66.043-1.01.005-.177-.019-.34-.038-.493-.043l-3.972-.123c-.402-.014-.89-.067-1.417-.124-1.398-.16-2.982-.337-4.111.133l-2.815 1.164c-.186.08-.42.199-.67.327-.555.29-1.397.726-1.804.641-.038-.005-.077-.01-.115-.01-.254.01-.56-.028-.957-.118a17.126 17.126 0 0 1-.814-.214c-.32-.09-.627-.175-.919-.232-1.02-.21-1.474.199-2.005.674a7.685 7.685 0 0 0-.22.2l-2.623 2.264c-.335.294-.924.27-1.493.251-.178-.01-.369-.014-.546-.01a.662.662 0 0 0-.517.257c-.311.399-.201 1.158.1 2.412.03.118.053.232.063.275a.402.402 0 0 1 .01.143c-.106.038-.393.033-.575.033-.163 0-.325-.005-.493.01l-.364.018c-2.067.138-3.857.257-5.892 1.092-.851.351-1.612.77-2.417 1.215l-.215.124c-1.062.584-1.397.835-1.235 2.26.02.17.043.332.058.489.12.864.191 1.438-.23 2.16-.69 1.158-.704 2.179-.053 3.214.398.617-.177 1.457-.44 1.79-.938 1.172-.852 1.647-.45 2.971l.02.081c.061.204.133.408.2.617.23.703.45 1.372.484 2.051.033.67.411 1.116 1.057 1.263.398.09.843.057 1.24.028.139-.01.278-.019.392-.019.149-.004.269-.004.364 0-.33.276-.904.641-1.259.874-.655.418-1.033.67-1.206.902-1.13 1.505-.392 4.823.656 6.024l1.991 2.293c.287.337.287 1.064.287 1.648 0 .232 0 .441.015.64.052.76.397 1.496.698 2.142.1.213.192.413.278.612.34.826.99 1.102 1.623 1.367.12.053.244.105.373.167l2.929 1.353c.273.128.55.394.852.674.378.36.77.736 1.259.902a.9.9 0 0 0 .268.104c.828.19 2.45-.513 2.819-.769.746-.532 1.249-1.543 1.651-2.36.081-.166.158-.322.235-.47.291-.55.914-.54 1.383-.431.91.204 1.823.935 1.952 1.557.02.076.034.156.048.228.091.389.158.697.053 1.016-.053.17-.144.237-.33.37-.163.11-.35.247-.508.475-.469.436-.512 1.329-.516 2.354.004.204.004.39-.005.494l-.005.038c-.168 1.837-.302 3.29-.943 4.947a29.377 29.377 0 0 1-.737 1.695c-.641 1.405-1.302 2.853-1.47 4.282-.11.983.116 1.538.68 1.666.618.143 1.355-.403 2.14-.978.363-.27.742-.55.98-.655a47.97 47.97 0 0 0 1.824-.83c1.202-.566 2.446-1.154 3.667-1.51l.057-.015c.412-.175.852-.256 1.33-.337.613-.104 1.24-.218 1.872-.546.665-.313 1.311-.66 1.934-1.001.32-.171.636-.342.952-.508.388-.204.546-.204.632-.186.186.043.426.285.77.641.005.01.015.02.024.024.072.067.206.252.33.427.37.508.78 1.083 1.326 1.206.216.048.642.062 1.005-.413.015-.019.03-.038.039-.057.2-.36.239-.745.263-1.054.01-.07.02-.156.029-.228.09.024.21.072.354.133.014.01.019.015.033.02.536.194 1.101.716 1.599 1.172.23.209.445.408.66.58.154.123.302.246.455.37 1.455 1.182 2.829 2.307 4.777 2.748.306.067.517.38.76.736.288.427.618.916 1.216 1.097l3.16.973c.55.17.732.688.947 1.462.201.722.775 1.358 1.283 1.918.167.18.32.356.45.513a111.438 111.438 0 0 1 3.637 4.738c.57.797 3.03 2.658 4.643 3.024.387.09.708.085.98 0 .566-.067 1.173-.352 1.71-.603.239-.114.473-.223.674-.304l2.9-1.106c.211-.076.446-.19.695-.313.636-.309 1.426-.694 1.952-.575a.611.611 0 0 1 .297.152c1.063.935 2.092 1.467 3.336 2.065a7.35 7.35 0 0 0 1.608.55c.536.124 1.068.2 1.637.276l.287.038c.46.067.838-.019 1.125-.256.522-.442.546-1.244.565-1.951.005-.252.01-.485.038-.684.015-.114.024-.228.038-.347.101-.845.225-1.898.69-2.473l.048-.057c.837-1.035 1.493-1.851 1.919-3.214.35-1.23.526-1.362 1.728-1.828.105-.042.287-.095.502-.161 1.197-.356 3.006-.897 2.944-2.127"/>
    </g>
</svg>
